<svg width="317" height="47" viewBox="0 0 317 47" fill="none" xmlns="http://www.w3.org/2000/svg">
<g clip-path="url(#clip0_13_107)">
<path d="M11.1031 9.01446C7.76705 10.4905 5.68055 12.889 4.50305 14.635C3.22505 16.537 2.72705 18.1135 2.72705 18.127C2.72405 18.181 2.73455 18.1015 2.72705 18.1555C2.35805 19.2055 2.01755 20.8525 2.01755 20.866C1.62005 22.882 1.80455 24.7555 1.80455 24.784L1.84805 25.153C1.88817 24.6439 1.95426 24.1373 2.04605 23.635C2.07455 23.4355 2.60105 20.611 4.58705 18.3685C4.80005 18.0415 7.09955 15.019 11.3296 15.019C12.2386 15.019 13.1896 15.16 14.1406 15.4435H14.1691C14.2261 15.4585 15.4741 15.913 15.9286 16.1395C16.3546 16.3525 17.1076 16.6795 17.1211 16.6795H17.1511C21.2236 18.667 24.7441 19.3045 24.7726 19.3195C25.7806 19.4895 26.6891 19.5745 27.4981 19.5745C29.1166 19.5745 30.2806 19.2205 30.8911 18.5395C31.2466 18.1495 31.3516 17.701 31.3306 17.3185C31.3591 15.841 30.1531 14.2525 29.1301 13.1875C28.4233 12.4451 27.649 11.7702 26.8171 11.1715C23.7511 8.90046 20.4721 7.75146 17.0371 7.75146C13.5166 7.76496 11.1316 8.99946 11.1031 9.01446ZM22.2316 13.003C22.6576 13.003 22.9981 13.3435 22.9981 13.768C22.9984 13.8688 22.9789 13.9687 22.9405 14.062C22.9022 14.1552 22.8458 14.24 22.7745 14.3114C22.7033 14.3827 22.6186 14.4393 22.5255 14.4779C22.4323 14.5164 22.3324 14.5362 22.2316 14.536C22.1308 14.5362 22.0311 14.5165 21.938 14.478C21.8449 14.4396 21.7603 14.3831 21.6891 14.3119C21.6179 14.2407 21.5614 14.1561 21.523 14.063C21.4845 13.9699 21.4649 13.8702 21.4651 13.7695C21.4651 13.3435 21.8056 13.003 22.2316 13.003ZM12.3241 10.093C12.4366 10.093 12.5086 10.1215 12.5371 10.1215L17.3776 11.626L17.1931 12.0085L14.8786 11.2855C14.0566 11.0305 13.1986 10.759 12.3946 10.5055C12.3796 10.5055 12.3526 10.4905 12.3241 10.4905C12.2941 10.4905 12.2521 10.4905 12.2236 10.5055C11.7841 10.618 10.5781 11.044 10.2226 11.683C10.175 11.7686 10.1454 11.8631 10.1356 11.9606C10.1258 12.0581 10.136 12.1565 10.1656 12.25C10.1656 12.265 10.4206 13.06 11.0596 13.882L14.2696 13.726L16.4116 13.627L16.1986 14.0665L10.8751 14.3215C10.0801 13.357 9.76805 12.3925 9.76805 12.3925C9.27155 10.831 12.1246 10.105 12.1246 10.105C12.1926 10.102 12.2591 10.097 12.3241 10.09V10.093ZM29.1586 33.7135C32.4241 32.2945 33.8146 29.8375 33.8146 29.8375C36.8671 25.6795 35.8306 21.292 35.8306 21.292C33.8866 25.522 32.1106 26.686 32.1106 26.686C36.8956 19.405 32.1406 15.004 32.1406 15.004C34.0846 19.15 31.5001 24.202 31.5001 24.202C29.3281 28.774 26.2471 30.406 26.2471 30.406C29.6821 31.045 32.2096 28.7305 32.2096 28.7305C27.2836 34.054 21.9466 33.799 21.9466 33.799C24.1891 36.3115 27.5536 36.0985 27.5536 36.0985C23.1526 37.1335 19.0216 35.6725 15.6286 32.848C14.9911 32.323 14.3806 31.753 13.8136 31.144C13.5976 30.919 13.3936 30.679 13.1881 30.448C13.1176 33.0745 15.8566 35.5165 15.8566 35.5165C12.4216 34.096 10.8466 31.0165 10.8466 31.0165C10.8466 31.0165 8.53205 27.07 10.2076 22.57C11.8681 18.127 16.8361 17.131 16.9636 17.1025C16.5581 16.9155 16.1511 16.732 15.7426 16.552C15.3031 16.339 14.0251 15.8695 14.0251 15.8695C13.1502 15.6048 12.242 15.4664 11.3281 15.4585C7.14005 15.4585 4.91255 18.6235 4.91255 18.6235C2.93855 20.839 2.47055 23.7055 2.47055 23.7055C1.91555 26.446 2.51255 29.3275 2.51255 29.3275C2.51255 29.3275 2.56955 29.554 2.58455 29.653C3.03905 30.733 3.61955 31.798 4.30205 32.8045C7.99205 38.3125 13.9831 40.2145 13.9831 40.2145C22.8541 43.2235 28.9156 38.7955 28.9156 38.7955C34.4956 34.963 35.6161 30.5335 35.6161 30.5335C31.1011 34.0405 29.1586 33.7135 29.1586 33.7135ZM1.96055 27.922C1.71657 27.0461 1.5361 26.1538 1.42055 25.252C1.40555 25.105 1.38305 24.9415 1.36505 24.799C1.36505 24.799 1.16555 22.8685 1.59155 20.7535C1.59155 20.7535 1.60655 20.6965 1.62155 20.611C1.67555 20.3065 1.76105 20.0005 1.81955 19.7455C1.94705 19.1905 2.13155 18.5245 2.31455 17.9845C2.31455 17.9845 4.27505 11.554 10.9036 8.61696C10.9036 8.61696 13.1896 7.40946 16.6381 7.32396C16.4033 7.08376 16.1473 6.86537 15.8731 6.67146C14.2531 5.59146 11.8411 5.23746 10.3786 6.75696C9.93905 7.21146 9.56855 7.70796 9.15755 8.16246C8.68955 8.67246 8.12255 9.09846 7.46855 9.33996C6.90155 9.55296 6.33305 9.51096 5.75105 9.60996C5.15555 9.70896 4.54505 9.92196 4.06205 10.306C3.53705 10.732 3.32405 11.299 3.26705 11.9515C3.21005 12.463 3.22505 12.988 3.19655 13.4995C3.12455 15.004 2.64155 15.43 1.56305 16.267C1.10855 16.6075 0.726053 17.062 0.442553 17.545C-0.409447 19.0495 0.952553 20.611 1.02455 22.1305C1.03955 22.4425 1.00955 22.7545 0.897053 23.053C0.783053 23.3785 0.555053 23.593 0.372053 23.863C0.115553 24.217 -0.055447 24.643 0.016553 25.0825C0.088553 25.522 0.315053 25.9345 0.526553 26.317C0.939053 26.9995 1.45055 27.61 1.98905 28.192C2.00705 28.216 2.04605 28.252 2.07005 28.27L1.96055 27.922Z" fill="#E9E9E9"/>
</g>
<path d="M48.6523 37V33.9238L51.377 33.3965V15.0273L48.6523 14.5V11.4062H60.7812C62.75 11.4062 64.4375 11.7109 65.8438 12.3203C67.25 12.9297 68.3281 13.8027 69.0781 14.9395C69.8398 16.0762 70.2207 17.4414 70.2207 19.0352C70.2207 20.5352 69.8457 21.877 69.0957 23.0605C68.3457 24.2441 67.3027 25.1758 65.9668 25.8555C64.6309 26.5352 63.0898 26.8809 61.3438 26.8926H56.5098V33.3965L59.252 33.9238V37H48.6523ZM65.123 37L60.8164 25.9434L65.4395 24.8008L69.166 33.4141L71.3457 33.9238V37H65.123ZM56.5098 22.9375H60.6934C62.1699 22.9375 63.2715 22.627 63.998 22.0059C64.7363 21.373 65.1055 20.459 65.1055 19.2637C65.1055 18.0801 64.7422 17.1367 64.0156 16.4336C63.2891 15.7187 62.2109 15.3613 60.7812 15.3613H56.5098V22.9375ZM82.6309 37.3691C80.8145 37.3691 79.2266 36.9707 77.8672 36.1738C76.5078 35.3652 75.4531 34.2578 74.7031 32.8516C73.9648 31.4453 73.5957 29.8398 73.5957 28.0352V27.332C73.5957 25.4453 73.9473 23.7754 74.6504 22.3223C75.3535 20.8574 76.3438 19.709 77.6211 18.877C78.9102 18.0449 80.4277 17.6289 82.1738 17.6289C83.8965 17.6289 85.3438 17.9688 86.5156 18.6484C87.6875 19.3281 88.5781 20.3066 89.1875 21.584C89.7969 22.8613 90.1016 24.4082 90.1016 26.2246V29.0195H78.9219L78.8867 29.125C78.957 29.957 79.1621 30.7012 79.502 31.3574C79.8535 32.002 80.3457 32.5117 80.9785 32.8867C81.6113 33.25 82.3789 33.4316 83.2812 33.4316C84.2188 33.4316 85.0918 33.3145 85.9004 33.0801C86.7207 32.834 87.5176 32.4766 88.291 32.0078L89.6797 35.1719C88.8945 35.8047 87.9043 36.332 86.709 36.7539C85.5254 37.1641 84.166 37.3691 82.6309 37.3691ZM78.957 25.627H85.3027V25.1699C85.3027 24.3965 85.1973 23.7344 84.9863 23.1836C84.7871 22.6211 84.459 22.1875 84.002 21.8828C83.5566 21.5781 82.9766 21.4258 82.2617 21.4258C81.582 21.4258 81.0078 21.6074 80.5391 21.9707C80.0703 22.3223 79.7012 22.8086 79.4316 23.4297C79.1738 24.0508 78.998 24.7539 78.9043 25.5391L78.957 25.627ZM98.873 37.3691C96.9863 37.3691 95.4863 36.8652 94.373 35.8574C93.2598 34.8379 92.7031 33.4551 92.7031 31.709C92.7031 29.916 93.4297 28.4629 94.8828 27.3496C96.3359 26.2246 98.4629 25.6621 101.264 25.6621H103.777V24.2559C103.777 23.3418 103.508 22.6035 102.969 22.041C102.441 21.4668 101.645 21.1797 100.578 21.1797C100.027 21.1797 99.5352 21.25 99.1016 21.3906C98.668 21.5195 98.2695 21.707 97.9062 21.9531L97.502 24.4668H93.8105L93.7402 19.5273C94.7363 18.9648 95.8145 18.5078 96.9746 18.1562C98.1348 17.8047 99.4297 17.6289 100.859 17.6289C103.344 17.6289 105.307 18.209 106.748 19.3691C108.189 20.5176 108.91 22.1641 108.91 24.3086V32.1484C108.91 32.4062 108.91 32.6641 108.91 32.9219C108.922 33.168 108.945 33.4082 108.98 33.6426L110.967 33.9238V37H104.604C104.475 36.6719 104.346 36.3203 104.217 35.9453C104.088 35.5703 103.994 35.1953 103.936 34.8203C103.326 35.5938 102.605 36.2148 101.773 36.6836C100.953 37.1406 99.9863 37.3691 98.873 37.3691ZM100.244 33.5723C100.959 33.5723 101.639 33.4141 102.283 33.0977C102.928 32.7695 103.426 32.3418 103.777 31.8145V28.8086H101.246C100.121 28.8086 99.2656 29.0664 98.6797 29.582C98.1055 30.0977 97.8184 30.7188 97.8184 31.4453C97.8184 32.125 98.0293 32.6523 98.4512 33.0273C98.8848 33.3906 99.4824 33.5723 100.244 33.5723ZM121.742 37.3691C119.914 37.3691 118.332 36.959 116.996 36.1387C115.672 35.3184 114.652 34.1875 113.938 32.7461C113.223 31.293 112.865 29.6348 112.865 27.7715V27.2441C112.865 25.3691 113.229 23.7109 113.955 22.2695C114.682 20.8281 115.707 19.6973 117.031 18.877C118.355 18.0449 119.914 17.6289 121.707 17.6289C123.418 17.6289 124.889 17.8984 126.119 18.4375C127.361 18.9648 128.369 19.5801 129.143 20.2832L129.107 25.7324H125.24L124.555 22.3398C124.273 22.0586 123.916 21.8301 123.482 21.6543C123.049 21.4785 122.609 21.3906 122.164 21.3906C121.227 21.3906 120.447 21.625 119.826 22.0938C119.217 22.5625 118.76 23.2305 118.455 24.0977C118.15 24.9648 117.998 26.0137 117.998 27.2441V27.7715C117.998 29.0723 118.168 30.1445 118.508 30.9883C118.848 31.8203 119.299 32.4355 119.861 32.834C120.436 33.2324 121.074 33.4316 121.777 33.4316C122.68 33.4316 123.4 33.1973 123.939 32.7285C124.49 32.248 124.865 31.5742 125.064 30.707H129.459L129.512 30.8125C129.312 32.1602 128.914 33.3262 128.316 34.3105C127.73 35.2949 126.898 36.0508 125.82 36.5781C124.754 37.1055 123.395 37.3691 121.742 37.3691ZM139.285 37.3691C137.516 37.3691 136.15 36.8828 135.189 35.9102C134.24 34.9375 133.766 33.3965 133.766 31.2871V21.584H131.146V17.9805H133.766V13.3223H138.881V17.9805H142.379V21.584H138.881V31.2695C138.881 32.0078 139.033 32.5352 139.338 32.8516C139.654 33.168 140.082 33.3262 140.621 33.3262C140.914 33.3262 141.219 33.3086 141.535 33.2734C141.863 33.2266 142.145 33.1797 142.379 33.1328L142.818 36.8418C142.291 36.9941 141.717 37.1172 141.096 37.2109C140.486 37.3164 139.883 37.3691 139.285 37.3691ZM145.016 37V33.9238L147.494 33.3965V21.6016L144.752 21.0742V17.9805H152.627V33.3965L155.088 33.9238V37H145.016ZM147.318 13.9551V9.57812H152.627V13.9551H147.318ZM163.895 37L158.146 21.3906L156.09 21.0742V17.9805H165.318V21.0566L163.314 21.4082L166.18 30.0391L166.619 31.5156H166.725L167.217 30.0391L170.363 21.4258L168.025 21.0566V17.9805H177.236V21.0742L175.127 21.4258L169.115 37H163.895ZM187.467 37.3691C185.65 37.3691 184.062 36.9707 182.703 36.1738C181.344 35.3652 180.289 34.2578 179.539 32.8516C178.801 31.4453 178.432 29.8398 178.432 28.0352V27.332C178.432 25.4453 178.783 23.7754 179.486 22.3223C180.189 20.8574 181.18 19.709 182.457 18.877C183.746 18.0449 185.264 17.6289 187.01 17.6289C188.732 17.6289 190.18 17.9688 191.352 18.6484C192.523 19.3281 193.414 20.3066 194.023 21.584C194.633 22.8613 194.938 24.4082 194.938 26.2246V29.0195H183.758L183.723 29.125C183.793 29.957 183.998 30.7012 184.338 31.3574C184.689 32.002 185.182 32.5117 185.814 32.8867C186.447 33.25 187.215 33.4316 188.117 33.4316C189.055 33.4316 189.928 33.3145 190.736 33.0801C191.557 32.834 192.354 32.4766 193.127 32.0078L194.516 35.1719C193.73 35.8047 192.74 36.332 191.545 36.7539C190.361 37.1641 189.002 37.3691 187.467 37.3691ZM183.793 25.627H190.139V25.1699C190.139 24.3965 190.033 23.7344 189.822 23.1836C189.623 22.6211 189.295 22.1875 188.838 21.8828C188.393 21.5781 187.812 21.4258 187.098 21.4258C186.418 21.4258 185.844 21.6074 185.375 21.9707C184.906 22.3223 184.537 22.8086 184.268 23.4297C184.01 24.0508 183.834 24.7539 183.74 25.5391L183.793 25.627ZM216.453 37.3691C214.566 37.3691 212.85 37.1582 211.303 36.7363C209.756 36.3145 208.232 35.582 206.732 34.5391V28.3516H210.705L211.25 31.9902C211.777 32.4355 212.504 32.7988 213.43 33.0801C214.355 33.3496 215.363 33.4844 216.453 33.4844C217.379 33.4844 218.158 33.3555 218.791 33.0977C219.436 32.8398 219.922 32.4766 220.25 32.0078C220.59 31.5273 220.76 30.9648 220.76 30.3203C220.76 29.7109 220.607 29.1719 220.303 28.7031C220.01 28.2227 219.518 27.7891 218.826 27.4023C218.146 27.0039 217.221 26.623 216.049 26.2598C214.021 25.6621 212.34 25.0117 211.004 24.3086C209.68 23.5938 208.684 22.7441 208.016 21.7598C207.359 20.7637 207.031 19.5684 207.031 18.1738C207.031 16.791 207.412 15.5723 208.174 14.5176C208.947 13.4512 210.014 12.6133 211.373 12.0039C212.732 11.3945 214.303 11.0781 216.084 11.0547C218.053 11.0313 219.793 11.2656 221.305 11.7578C222.828 12.25 224.141 12.9355 225.242 13.8145V19.5801H221.393L220.725 16.0645C220.279 15.7832 219.676 15.5371 218.914 15.3262C218.164 15.1152 217.309 15.0098 216.348 15.0098C215.527 15.0098 214.801 15.1328 214.168 15.3789C213.547 15.625 213.055 15.9824 212.691 16.4512C212.328 16.9199 212.146 17.4883 212.146 18.1562C212.146 18.7305 212.305 19.2344 212.621 19.668C212.938 20.0898 213.465 20.4941 214.203 20.8809C214.953 21.2559 215.984 21.6602 217.297 22.0938C220.121 22.8789 222.26 23.916 223.713 25.2051C225.178 26.4941 225.91 28.1875 225.91 30.2852C225.91 31.7383 225.518 32.998 224.732 34.0645C223.947 35.1191 222.846 35.9336 221.428 36.5078C220.01 37.082 218.352 37.3691 216.453 37.3691ZM227.791 37V33.9238L230.27 33.3965V13.1992L227.527 12.6719V9.57812H235.385V20.4062C235.982 19.5273 236.721 18.8477 237.6 18.3672C238.49 17.875 239.498 17.6289 240.623 17.6289C242.533 17.6289 244.045 18.2676 245.158 19.5449C246.283 20.8105 246.846 22.7734 246.846 25.4336V33.3965L249.307 33.9238V37H239.498V33.9238L241.713 33.3965V25.3984C241.713 24.0273 241.455 23.0547 240.939 22.4805C240.424 21.9062 239.668 21.6191 238.672 21.6191C237.98 21.6191 237.348 21.7656 236.773 22.0586C236.211 22.3398 235.748 22.7559 235.385 23.3066V33.3965L237.6 33.9238V37H227.791ZM259.818 37.3691C257.943 37.3691 256.332 36.959 254.984 36.1387C253.637 35.3184 252.605 34.1816 251.891 32.7285C251.176 31.2637 250.818 29.582 250.818 27.6836V27.3145C250.818 25.4277 251.176 23.7578 251.891 22.3047C252.605 20.8398 253.631 19.6973 254.967 18.877C256.314 18.0449 257.92 17.6289 259.783 17.6289C261.67 17.6289 263.281 18.0449 264.617 18.877C265.953 19.6973 266.979 20.834 267.693 22.2871C268.408 23.7402 268.766 25.416 268.766 27.3145V27.6836C268.766 29.582 268.408 31.2637 267.693 32.7285C266.979 34.1816 265.953 35.3184 264.617 36.1387C263.281 36.959 261.682 37.3691 259.818 37.3691ZM259.818 33.4316C260.709 33.4316 261.436 33.1914 261.998 32.7109C262.561 32.2305 262.977 31.5625 263.246 30.707C263.516 29.8398 263.65 28.832 263.65 27.6836V27.3145C263.65 26.1895 263.516 25.1992 263.246 24.3438C262.977 23.4766 262.555 22.8027 261.98 22.3223C261.418 21.8301 260.686 21.584 259.783 21.584C258.904 21.584 258.178 21.8301 257.604 22.3223C257.029 22.8027 256.607 23.4766 256.338 24.3438C256.08 25.1992 255.951 26.1895 255.951 27.3145V27.6836C255.951 28.832 256.08 29.8398 256.338 30.707C256.607 31.5742 257.029 32.248 257.604 32.7285C258.178 33.1973 258.916 33.4316 259.818 33.4316ZM280.385 37.3691C278.568 37.3691 276.98 36.9707 275.621 36.1738C274.262 35.3652 273.207 34.2578 272.457 32.8516C271.719 31.4453 271.35 29.8398 271.35 28.0352V27.332C271.35 25.4453 271.701 23.7754 272.404 22.3223C273.107 20.8574 274.098 19.709 275.375 18.877C276.664 18.0449 278.182 17.6289 279.928 17.6289C281.65 17.6289 283.098 17.9688 284.27 18.6484C285.441 19.3281 286.332 20.3066 286.941 21.584C287.551 22.8613 287.855 24.4082 287.855 26.2246V29.0195H276.676L276.641 29.125C276.711 29.957 276.916 30.7012 277.256 31.3574C277.607 32.002 278.1 32.5117 278.732 32.8867C279.365 33.25 280.133 33.4316 281.035 33.4316C281.973 33.4316 282.846 33.3145 283.654 33.0801C284.475 32.834 285.271 32.4766 286.045 32.0078L287.434 35.1719C286.648 35.8047 285.658 36.332 284.463 36.7539C283.279 37.1641 281.92 37.3691 280.385 37.3691ZM276.711 25.627H283.057V25.1699C283.057 24.3965 282.951 23.7344 282.74 23.1836C282.541 22.6211 282.213 22.1875 281.756 21.8828C281.311 21.5781 280.73 21.4258 280.016 21.4258C279.336 21.4258 278.762 21.6074 278.293 21.9707C277.824 22.3223 277.455 22.8086 277.186 23.4297C276.928 24.0508 276.752 24.7539 276.658 25.5391L276.711 25.627ZM298.42 37.3691C297.002 37.3691 295.678 37.2344 294.447 36.9648C293.229 36.6953 292.057 36.3086 290.932 35.8047L290.879 30.4258H294.447L295.133 33.168C295.531 33.3672 295.965 33.5254 296.434 33.6426C296.914 33.7598 297.459 33.8184 298.068 33.8184C299.217 33.8184 300.025 33.6309 300.494 33.2559C300.963 32.8809 301.197 32.4121 301.197 31.8496C301.197 31.3223 300.945 30.8594 300.441 30.4609C299.949 30.0508 298.959 29.6934 297.471 29.3887C295.221 28.9199 293.562 28.1934 292.496 27.209C291.43 26.2246 290.896 24.9648 290.896 23.4297C290.896 22.375 291.16 21.4141 291.688 20.5469C292.227 19.6797 293.041 18.9824 294.131 18.4551C295.232 17.9277 296.639 17.6641 298.35 17.6641C299.779 17.6641 301.086 17.8047 302.27 18.0859C303.465 18.3555 304.467 18.7129 305.275 19.1582L305.328 24.3613H301.777L301.232 21.8652C300.916 21.6309 300.541 21.4551 300.107 21.3379C299.686 21.2207 299.205 21.1621 298.666 21.1621C297.764 21.1621 297.072 21.3438 296.592 21.707C296.111 22.0703 295.871 22.5391 295.871 23.1133C295.871 23.4414 295.953 23.7461 296.117 24.0273C296.293 24.3086 296.633 24.5723 297.137 24.8184C297.641 25.0645 298.373 25.2988 299.334 25.5215C301.689 26.0605 303.406 26.7812 304.484 27.6836C305.562 28.5742 306.102 29.8281 306.102 31.4453C306.102 33.2148 305.457 34.6445 304.168 35.7344C302.891 36.8242 300.975 37.3691 298.42 37.3691Z" fill="#E9E9E9"/>
<defs>
<clipPath id="clip0_13_107">
<rect width="36" height="36" fill="white" transform="translate(0 5.5)"/>
</clipPath>
</defs>
</svg>
