<svg width="318" height="47" viewBox="0 0 318 47" fill="none" xmlns="http://www.w3.org/2000/svg">
<g clip-path="url(#clip0_11_172)">
<path d="M11.6031 9.01446C8.26705 10.4905 6.18055 12.889 5.00305 14.635C3.72505 16.537 3.22705 18.1135 3.22705 18.127C3.22405 18.181 3.23455 18.1015 3.22705 18.1555C2.85805 19.2055 2.51755 20.8525 2.51755 20.866C2.12005 22.882 2.30455 24.7555 2.30455 24.784L2.34805 25.153C2.38817 24.6439 2.45426 24.1373 2.54605 23.635C2.57455 23.4355 3.10105 20.611 5.08705 18.3685C5.30005 18.0415 7.59955 15.019 11.8296 15.019C12.7386 15.019 13.6896 15.16 14.6406 15.4435H14.6691C14.7261 15.4585 15.9741 15.913 16.4286 16.1395C16.8546 16.3525 17.6076 16.6795 17.6211 16.6795H17.6511C21.7236 18.667 25.2441 19.3045 25.2726 19.3195C26.2806 19.4895 27.1891 19.5745 27.9981 19.5745C29.6166 19.5745 30.7806 19.2205 31.3911 18.5395C31.7466 18.1495 31.8516 17.701 31.8306 17.3185C31.8591 15.841 30.6531 14.2525 29.6301 13.1875C28.9233 12.4451 28.149 11.7702 27.3171 11.1715C24.2511 8.90046 20.9721 7.75146 17.5371 7.75146C14.0166 7.76496 11.6316 8.99946 11.6031 9.01446ZM22.7316 13.003C23.1576 13.003 23.4981 13.3435 23.4981 13.768C23.4984 13.8688 23.4789 13.9687 23.4405 14.062C23.4022 14.1552 23.3458 14.24 23.2745 14.3114C23.2033 14.3827 23.1186 14.4393 23.0255 14.4779C22.9323 14.5164 22.8324 14.5362 22.7316 14.536C22.6308 14.5362 22.5311 14.5165 22.438 14.478C22.3449 14.4396 22.2603 14.3831 22.1891 14.3119C22.1179 14.2407 22.0614 14.1561 22.023 14.063C21.9845 13.9699 21.9649 13.8702 21.9651 13.7695C21.9651 13.3435 22.3056 13.003 22.7316 13.003ZM12.8241 10.093C12.9366 10.093 13.0086 10.1215 13.0371 10.1215L17.8776 11.626L17.6931 12.0085L15.3786 11.2855C14.5566 11.0305 13.6986 10.759 12.8946 10.5055C12.8796 10.5055 12.8526 10.4905 12.8241 10.4905C12.7941 10.4905 12.7521 10.4905 12.7236 10.5055C12.2841 10.618 11.0781 11.044 10.7226 11.683C10.675 11.7686 10.6454 11.8631 10.6356 11.9606C10.6258 12.0581 10.636 12.1565 10.6656 12.25C10.6656 12.265 10.9206 13.06 11.5596 13.882L14.7696 13.726L16.9116 13.627L16.6986 14.0665L11.3751 14.3215C10.5801 13.357 10.2681 12.3925 10.2681 12.3925C9.77155 10.831 12.6246 10.105 12.6246 10.105C12.6926 10.102 12.7591 10.097 12.8241 10.09V10.093ZM29.6586 33.7135C32.9241 32.2945 34.3146 29.8375 34.3146 29.8375C37.3671 25.6795 36.3306 21.292 36.3306 21.292C34.3866 25.522 32.6106 26.686 32.6106 26.686C37.3956 19.405 32.6406 15.004 32.6406 15.004C34.5846 19.15 32.0001 24.202 32.0001 24.202C29.8281 28.774 26.7471 30.406 26.7471 30.406C30.1821 31.045 32.7096 28.7305 32.7096 28.7305C27.7836 34.054 22.4466 33.799 22.4466 33.799C24.6891 36.3115 28.0536 36.0985 28.0536 36.0985C23.6526 37.1335 19.5216 35.6725 16.1286 32.848C15.4911 32.323 14.8806 31.753 14.3136 31.144C14.0976 30.919 13.8936 30.679 13.6881 30.448C13.6176 33.0745 16.3566 35.5165 16.3566 35.5165C12.9216 34.096 11.3466 31.0165 11.3466 31.0165C11.3466 31.0165 9.03205 27.07 10.7076 22.57C12.3681 18.127 17.3361 17.131 17.4636 17.1025C17.0581 16.9155 16.6511 16.732 16.2426 16.552C15.8031 16.339 14.5251 15.8695 14.5251 15.8695C13.6502 15.6048 12.742 15.4664 11.8281 15.4585C7.64005 15.4585 5.41255 18.6235 5.41255 18.6235C3.43855 20.839 2.97055 23.7055 2.97055 23.7055C2.41555 26.446 3.01255 29.3275 3.01255 29.3275C3.01255 29.3275 3.06955 29.554 3.08455 29.653C3.53905 30.733 4.11955 31.798 4.80205 32.8045C8.49205 38.3125 14.4831 40.2145 14.4831 40.2145C23.3541 43.2235 29.4156 38.7955 29.4156 38.7955C34.9956 34.963 36.1161 30.5335 36.1161 30.5335C31.6011 34.0405 29.6586 33.7135 29.6586 33.7135ZM2.46055 27.922C2.21657 27.0461 2.0361 26.1538 1.92055 25.252C1.90555 25.105 1.88305 24.9415 1.86505 24.799C1.86505 24.799 1.66555 22.8685 2.09155 20.7535C2.09155 20.7535 2.10655 20.6965 2.12155 20.611C2.17555 20.3065 2.26105 20.0005 2.31955 19.7455C2.44705 19.1905 2.63155 18.5245 2.81455 17.9845C2.81455 17.9845 4.77505 11.554 11.4036 8.61696C11.4036 8.61696 13.6896 7.40946 17.1381 7.32396C16.9033 7.08376 16.6473 6.86537 16.3731 6.67146C14.7531 5.59146 12.3411 5.23746 10.8786 6.75696C10.4391 7.21146 10.0686 7.70796 9.65755 8.16246C9.18955 8.67246 8.62255 9.09846 7.96855 9.33996C7.40155 9.55296 6.83305 9.51096 6.25105 9.60996C5.65555 9.70896 5.04505 9.92196 4.56205 10.306C4.03705 10.732 3.82405 11.299 3.76705 11.9515C3.71005 12.463 3.72505 12.988 3.69655 13.4995C3.62455 15.004 3.14155 15.43 2.06305 16.267C1.60855 16.6075 1.22605 17.062 0.942553 17.545C0.0905529 19.0495 1.45255 20.611 1.52455 22.1305C1.53955 22.4425 1.50955 22.7545 1.39705 23.053C1.28305 23.3785 1.05505 23.593 0.872053 23.863C0.615553 24.217 0.444553 24.643 0.516553 25.0825C0.588553 25.522 0.815053 25.9345 1.02655 26.317C1.43905 26.9995 1.95055 27.61 2.48905 28.192C2.50705 28.216 2.54605 28.252 2.57005 28.27L2.46055 27.922Z" fill="#28665B"/>
</g>
<path d="M49.1523 37V33.9238L51.877 33.3965V15.0273L49.1523 14.5V11.4062H61.2812C63.25 11.4062 64.9375 11.7109 66.3438 12.3203C67.75 12.9297 68.8281 13.8027 69.5781 14.9395C70.3398 16.0762 70.7207 17.4414 70.7207 19.0352C70.7207 20.5352 70.3457 21.877 69.5957 23.0605C68.8457 24.2441 67.8027 25.1758 66.4668 25.8555C65.1309 26.5352 63.5898 26.8809 61.8438 26.8926H57.0098V33.3965L59.752 33.9238V37H49.1523ZM65.623 37L61.3164 25.9434L65.9395 24.8008L69.666 33.4141L71.8457 33.9238V37H65.623ZM57.0098 22.9375H61.1934C62.6699 22.9375 63.7715 22.627 64.498 22.0059C65.2363 21.373 65.6055 20.459 65.6055 19.2637C65.6055 18.0801 65.2422 17.1367 64.5156 16.4336C63.7891 15.7187 62.7109 15.3613 61.2812 15.3613H57.0098V22.9375ZM83.1309 37.3691C81.3145 37.3691 79.7266 36.9707 78.3672 36.1738C77.0078 35.3652 75.9531 34.2578 75.2031 32.8516C74.4648 31.4453 74.0957 29.8398 74.0957 28.0352V27.332C74.0957 25.4453 74.4473 23.7754 75.1504 22.3223C75.8535 20.8574 76.8438 19.709 78.1211 18.877C79.4102 18.0449 80.9277 17.6289 82.6738 17.6289C84.3965 17.6289 85.8438 17.9688 87.0156 18.6484C88.1875 19.3281 89.0781 20.3066 89.6875 21.584C90.2969 22.8613 90.6016 24.4082 90.6016 26.2246V29.0195H79.4219L79.3867 29.125C79.457 29.957 79.6621 30.7012 80.002 31.3574C80.3535 32.002 80.8457 32.5117 81.4785 32.8867C82.1113 33.25 82.8789 33.4316 83.7812 33.4316C84.7188 33.4316 85.5918 33.3145 86.4004 33.0801C87.2207 32.834 88.0176 32.4766 88.791 32.0078L90.1797 35.1719C89.3945 35.8047 88.4043 36.332 87.209 36.7539C86.0254 37.1641 84.666 37.3691 83.1309 37.3691ZM79.457 25.627H85.8027V25.1699C85.8027 24.3965 85.6973 23.7344 85.4863 23.1836C85.2871 22.6211 84.959 22.1875 84.502 21.8828C84.0566 21.5781 83.4766 21.4258 82.7617 21.4258C82.082 21.4258 81.5078 21.6074 81.0391 21.9707C80.5703 22.3223 80.2012 22.8086 79.9316 23.4297C79.6738 24.0508 79.498 24.7539 79.4043 25.5391L79.457 25.627ZM99.373 37.3691C97.4863 37.3691 95.9863 36.8652 94.873 35.8574C93.7598 34.8379 93.2031 33.4551 93.2031 31.709C93.2031 29.916 93.9297 28.4629 95.3828 27.3496C96.8359 26.2246 98.9629 25.6621 101.764 25.6621H104.277V24.2559C104.277 23.3418 104.008 22.6035 103.469 22.041C102.941 21.4668 102.145 21.1797 101.078 21.1797C100.527 21.1797 100.035 21.25 99.6016 21.3906C99.168 21.5195 98.7695 21.707 98.4062 21.9531L98.002 24.4668H94.3105L94.2402 19.5273C95.2363 18.9648 96.3145 18.5078 97.4746 18.1562C98.6348 17.8047 99.9297 17.6289 101.359 17.6289C103.844 17.6289 105.807 18.209 107.248 19.3691C108.689 20.5176 109.41 22.1641 109.41 24.3086V32.1484C109.41 32.4062 109.41 32.6641 109.41 32.9219C109.422 33.168 109.445 33.4082 109.48 33.6426L111.467 33.9238V37H105.104C104.975 36.6719 104.846 36.3203 104.717 35.9453C104.588 35.5703 104.494 35.1953 104.436 34.8203C103.826 35.5938 103.105 36.2148 102.273 36.6836C101.453 37.1406 100.486 37.3691 99.373 37.3691ZM100.744 33.5723C101.459 33.5723 102.139 33.4141 102.783 33.0977C103.428 32.7695 103.926 32.3418 104.277 31.8145V28.8086H101.746C100.621 28.8086 99.7656 29.0664 99.1797 29.582C98.6055 30.0977 98.3184 30.7188 98.3184 31.4453C98.3184 32.125 98.5293 32.6523 98.9512 33.0273C99.3848 33.3906 99.9824 33.5723 100.744 33.5723ZM122.242 37.3691C120.414 37.3691 118.832 36.959 117.496 36.1387C116.172 35.3184 115.152 34.1875 114.438 32.7461C113.723 31.293 113.365 29.6348 113.365 27.7715V27.2441C113.365 25.3691 113.729 23.7109 114.455 22.2695C115.182 20.8281 116.207 19.6973 117.531 18.877C118.855 18.0449 120.414 17.6289 122.207 17.6289C123.918 17.6289 125.389 17.8984 126.619 18.4375C127.861 18.9648 128.869 19.5801 129.643 20.2832L129.607 25.7324H125.74L125.055 22.3398C124.773 22.0586 124.416 21.8301 123.982 21.6543C123.549 21.4785 123.109 21.3906 122.664 21.3906C121.727 21.3906 120.947 21.625 120.326 22.0938C119.717 22.5625 119.26 23.2305 118.955 24.0977C118.65 24.9648 118.498 26.0137 118.498 27.2441V27.7715C118.498 29.0723 118.668 30.1445 119.008 30.9883C119.348 31.8203 119.799 32.4355 120.361 32.834C120.936 33.2324 121.574 33.4316 122.277 33.4316C123.18 33.4316 123.9 33.1973 124.439 32.7285C124.99 32.248 125.365 31.5742 125.564 30.707H129.959L130.012 30.8125C129.812 32.1602 129.414 33.3262 128.816 34.3105C128.23 35.2949 127.398 36.0508 126.32 36.5781C125.254 37.1055 123.895 37.3691 122.242 37.3691ZM139.785 37.3691C138.016 37.3691 136.65 36.8828 135.689 35.9102C134.74 34.9375 134.266 33.3965 134.266 31.2871V21.584H131.646V17.9805H134.266V13.3223H139.381V17.9805H142.879V21.584H139.381V31.2695C139.381 32.0078 139.533 32.5352 139.838 32.8516C140.154 33.168 140.582 33.3262 141.121 33.3262C141.414 33.3262 141.719 33.3086 142.035 33.2734C142.363 33.2266 142.645 33.1797 142.879 33.1328L143.318 36.8418C142.791 36.9941 142.217 37.1172 141.596 37.2109C140.986 37.3164 140.383 37.3691 139.785 37.3691ZM145.516 37V33.9238L147.994 33.3965V21.6016L145.252 21.0742V17.9805H153.127V33.3965L155.588 33.9238V37H145.516ZM147.818 13.9551V9.57812H153.127V13.9551H147.818ZM164.395 37L158.646 21.3906L156.59 21.0742V17.9805H165.818V21.0566L163.814 21.4082L166.68 30.0391L167.119 31.5156H167.225L167.717 30.0391L170.863 21.4258L168.525 21.0566V17.9805H177.736V21.0742L175.627 21.4258L169.615 37H164.395ZM187.967 37.3691C186.15 37.3691 184.562 36.9707 183.203 36.1738C181.844 35.3652 180.789 34.2578 180.039 32.8516C179.301 31.4453 178.932 29.8398 178.932 28.0352V27.332C178.932 25.4453 179.283 23.7754 179.986 22.3223C180.689 20.8574 181.68 19.709 182.957 18.877C184.246 18.0449 185.764 17.6289 187.51 17.6289C189.232 17.6289 190.68 17.9688 191.852 18.6484C193.023 19.3281 193.914 20.3066 194.523 21.584C195.133 22.8613 195.438 24.4082 195.438 26.2246V29.0195H184.258L184.223 29.125C184.293 29.957 184.498 30.7012 184.838 31.3574C185.189 32.002 185.682 32.5117 186.314 32.8867C186.947 33.25 187.715 33.4316 188.617 33.4316C189.555 33.4316 190.428 33.3145 191.236 33.0801C192.057 32.834 192.854 32.4766 193.627 32.0078L195.016 35.1719C194.23 35.8047 193.24 36.332 192.045 36.7539C190.861 37.1641 189.502 37.3691 187.967 37.3691ZM184.293 25.627H190.639V25.1699C190.639 24.3965 190.533 23.7344 190.322 23.1836C190.123 22.6211 189.795 22.1875 189.338 21.8828C188.893 21.5781 188.312 21.4258 187.598 21.4258C186.918 21.4258 186.344 21.6074 185.875 21.9707C185.406 22.3223 185.037 22.8086 184.768 23.4297C184.51 24.0508 184.334 24.7539 184.24 25.5391L184.293 25.627ZM216.953 37.3691C215.066 37.3691 213.35 37.1582 211.803 36.7363C210.256 36.3145 208.732 35.582 207.232 34.5391V28.3516H211.205L211.75 31.9902C212.277 32.4355 213.004 32.7988 213.93 33.0801C214.855 33.3496 215.863 33.4844 216.953 33.4844C217.879 33.4844 218.658 33.3555 219.291 33.0977C219.936 32.8398 220.422 32.4766 220.75 32.0078C221.09 31.5273 221.26 30.9648 221.26 30.3203C221.26 29.7109 221.107 29.1719 220.803 28.7031C220.51 28.2227 220.018 27.7891 219.326 27.4023C218.646 27.0039 217.721 26.623 216.549 26.2598C214.521 25.6621 212.84 25.0117 211.504 24.3086C210.18 23.5938 209.184 22.7441 208.516 21.7598C207.859 20.7637 207.531 19.5684 207.531 18.1738C207.531 16.791 207.912 15.5723 208.674 14.5176C209.447 13.4512 210.514 12.6133 211.873 12.0039C213.232 11.3945 214.803 11.0781 216.584 11.0547C218.553 11.0313 220.293 11.2656 221.805 11.7578C223.328 12.25 224.641 12.9355 225.742 13.8145V19.5801H221.893L221.225 16.0645C220.779 15.7832 220.176 15.5371 219.414 15.3262C218.664 15.1152 217.809 15.0098 216.848 15.0098C216.027 15.0098 215.301 15.1328 214.668 15.3789C214.047 15.625 213.555 15.9824 213.191 16.4512C212.828 16.9199 212.646 17.4883 212.646 18.1562C212.646 18.7305 212.805 19.2344 213.121 19.668C213.438 20.0898 213.965 20.4941 214.703 20.8809C215.453 21.2559 216.484 21.6602 217.797 22.0938C220.621 22.8789 222.76 23.916 224.213 25.2051C225.678 26.4941 226.41 28.1875 226.41 30.2852C226.41 31.7383 226.018 32.998 225.232 34.0645C224.447 35.1191 223.346 35.9336 221.928 36.5078C220.51 37.082 218.852 37.3691 216.953 37.3691ZM228.291 37V33.9238L230.77 33.3965V13.1992L228.027 12.6719V9.57812H235.885V20.4062C236.482 19.5273 237.221 18.8477 238.1 18.3672C238.99 17.875 239.998 17.6289 241.123 17.6289C243.033 17.6289 244.545 18.2676 245.658 19.5449C246.783 20.8105 247.346 22.7734 247.346 25.4336V33.3965L249.807 33.9238V37H239.998V33.9238L242.213 33.3965V25.3984C242.213 24.0273 241.955 23.0547 241.439 22.4805C240.924 21.9062 240.168 21.6191 239.172 21.6191C238.48 21.6191 237.848 21.7656 237.273 22.0586C236.711 22.3398 236.248 22.7559 235.885 23.3066V33.3965L238.1 33.9238V37H228.291ZM260.318 37.3691C258.443 37.3691 256.832 36.959 255.484 36.1387C254.137 35.3184 253.105 34.1816 252.391 32.7285C251.676 31.2637 251.318 29.582 251.318 27.6836V27.3145C251.318 25.4277 251.676 23.7578 252.391 22.3047C253.105 20.8398 254.131 19.6973 255.467 18.877C256.814 18.0449 258.42 17.6289 260.283 17.6289C262.17 17.6289 263.781 18.0449 265.117 18.877C266.453 19.6973 267.479 20.834 268.193 22.2871C268.908 23.7402 269.266 25.416 269.266 27.3145V27.6836C269.266 29.582 268.908 31.2637 268.193 32.7285C267.479 34.1816 266.453 35.3184 265.117 36.1387C263.781 36.959 262.182 37.3691 260.318 37.3691ZM260.318 33.4316C261.209 33.4316 261.936 33.1914 262.498 32.7109C263.061 32.2305 263.477 31.5625 263.746 30.707C264.016 29.8398 264.15 28.832 264.15 27.6836V27.3145C264.15 26.1895 264.016 25.1992 263.746 24.3438C263.477 23.4766 263.055 22.8027 262.48 22.3223C261.918 21.8301 261.186 21.584 260.283 21.584C259.404 21.584 258.678 21.8301 258.104 22.3223C257.529 22.8027 257.107 23.4766 256.838 24.3438C256.58 25.1992 256.451 26.1895 256.451 27.3145V27.6836C256.451 28.832 256.58 29.8398 256.838 30.707C257.107 31.5742 257.529 32.248 258.104 32.7285C258.678 33.1973 259.416 33.4316 260.318 33.4316ZM280.885 37.3691C279.068 37.3691 277.48 36.9707 276.121 36.1738C274.762 35.3652 273.707 34.2578 272.957 32.8516C272.219 31.4453 271.85 29.8398 271.85 28.0352V27.332C271.85 25.4453 272.201 23.7754 272.904 22.3223C273.607 20.8574 274.598 19.709 275.875 18.877C277.164 18.0449 278.682 17.6289 280.428 17.6289C282.15 17.6289 283.598 17.9688 284.77 18.6484C285.941 19.3281 286.832 20.3066 287.441 21.584C288.051 22.8613 288.355 24.4082 288.355 26.2246V29.0195H277.176L277.141 29.125C277.211 29.957 277.416 30.7012 277.756 31.3574C278.107 32.002 278.6 32.5117 279.232 32.8867C279.865 33.25 280.633 33.4316 281.535 33.4316C282.473 33.4316 283.346 33.3145 284.154 33.0801C284.975 32.834 285.771 32.4766 286.545 32.0078L287.934 35.1719C287.148 35.8047 286.158 36.332 284.963 36.7539C283.779 37.1641 282.42 37.3691 280.885 37.3691ZM277.211 25.627H283.557V25.1699C283.557 24.3965 283.451 23.7344 283.24 23.1836C283.041 22.6211 282.713 22.1875 282.256 21.8828C281.811 21.5781 281.23 21.4258 280.516 21.4258C279.836 21.4258 279.262 21.6074 278.793 21.9707C278.324 22.3223 277.955 22.8086 277.686 23.4297C277.428 24.0508 277.252 24.7539 277.158 25.5391L277.211 25.627ZM298.92 37.3691C297.502 37.3691 296.178 37.2344 294.947 36.9648C293.729 36.6953 292.557 36.3086 291.432 35.8047L291.379 30.4258H294.947L295.633 33.168C296.031 33.3672 296.465 33.5254 296.934 33.6426C297.414 33.7598 297.959 33.8184 298.568 33.8184C299.717 33.8184 300.525 33.6309 300.994 33.2559C301.463 32.8809 301.697 32.4121 301.697 31.8496C301.697 31.3223 301.445 30.8594 300.941 30.4609C300.449 30.0508 299.459 29.6934 297.971 29.3887C295.721 28.9199 294.062 28.1934 292.996 27.209C291.93 26.2246 291.396 24.9648 291.396 23.4297C291.396 22.375 291.66 21.4141 292.188 20.5469C292.727 19.6797 293.541 18.9824 294.631 18.4551C295.732 17.9277 297.139 17.6641 298.85 17.6641C300.279 17.6641 301.586 17.8047 302.77 18.0859C303.965 18.3555 304.967 18.7129 305.775 19.1582L305.828 24.3613H302.277L301.732 21.8652C301.416 21.6309 301.041 21.4551 300.607 21.3379C300.186 21.2207 299.705 21.1621 299.166 21.1621C298.264 21.1621 297.572 21.3438 297.092 21.707C296.611 22.0703 296.371 22.5391 296.371 23.1133C296.371 23.4414 296.453 23.7461 296.617 24.0273C296.793 24.3086 297.133 24.5723 297.637 24.8184C298.141 25.0645 298.873 25.2988 299.834 25.5215C302.189 26.0605 303.906 26.7812 304.984 27.6836C306.062 28.5742 306.602 29.8281 306.602 31.4453C306.602 33.2148 305.957 34.6445 304.668 35.7344C303.391 36.8242 301.475 37.3691 298.92 37.3691Z" fill="#28665B"/>
<defs>
<clipPath id="clip0_11_172">
<rect width="36" height="36" fill="white" transform="translate(0.5 5.5)"/>
</clipPath>
</defs>
</svg>
